<svg width="23" height="36" viewBox="0 0 23 36" fill="none" xmlns="http://www.w3.org/2000/svg">
<path d="M22.8 23C22.8 24.1733 22.6 25.2533 22.2 26.24C21.8 27.2267 21.2267 28.1067 20.48 28.88C19.7333 29.6267 18.84 30.2533 17.8 30.76C16.7867 31.2667 15.6667 31.6133 14.44 31.8V35.84H9.52V31.84C8.26667 31.68 7.14667 31.4 6.16 31C5.2 30.6 4.33333 30.1333 3.56 29.6C2.78667 29.04 2.10667 28.4533 1.52 27.84C0.933333 27.2 0.426667 26.5733 0 25.96L3.96 21.92C4.36 22.5067 4.81333 23.08 5.32 23.64C5.85333 24.1733 6.45333 24.6533 7.12 25.08C7.78667 25.5067 8.53333 25.8533 9.36 26.12C10.1867 26.36 11.0933 26.48 12.08 26.48C13.4933 26.48 14.56 26.1867 15.28 25.6C16 25.0133 16.36 24.2933 16.36 23.44C16.36 23.12 16.3067 22.8133 16.2 22.52C16.0933 22.2267 15.8933 21.96 15.6 21.72C15.3333 21.4533 14.9467 21.2267 14.44 21.04C13.96 20.8267 13.3333 20.6667 12.56 20.56L10.4 20.24C9.14667 20.0533 8 19.7467 6.96 19.32C5.94667 18.8667 5.06667 18.3067 4.32 17.64C3.6 16.9467 3.04 16.16 2.64 15.28C2.24 14.3733 2.04 13.3733 2.04 12.28C2.04 11.24 2.21333 10.2533 2.56 9.32C2.90667 8.38667 3.4 7.56 4.04 6.84C4.68 6.09333 5.45333 5.46667 6.36 4.96C7.29333 4.45333 8.34667 4.08 9.52 3.84V0H14.44V3.76C16.0667 4.02667 17.52 4.53333 18.8 5.28C20.1067 6.02667 21.1867 6.90667 22.04 7.92L18.2 12.08C17.3467 11.1467 16.4 10.4267 15.36 9.92C14.32 9.38667 13.2133 9.12 12.04 9.12C10.92 9.12 10.04 9.37333 9.4 9.88C8.78667 10.3867 8.48 10.96 8.48 11.6C8.48 12.2133 8.72 12.76 9.2 13.24C9.68 13.6933 10.4533 14 11.52 14.16L13.68 14.48C16.5867 14.9067 18.8267 15.84 20.4 17.28C22 18.6933 22.8 20.6 22.8 23Z" fill="black"/>
</svg>
