<svg width="16" height="18" viewBox="0 0 16 18" fill="none" xmlns="http://www.w3.org/2000/svg">
<path d="M14.6516 17.5485L9.23133 11.7281C8.80115 12.0977 8.30644 12.3902 7.74721 12.6058C7.18797 12.8214 6.59289 12.9291 5.96196 12.9291C4.39898 12.9291 3.07617 12.3479 1.99356 11.1854C0.910938 10.0228 0.369629 8.60239 0.369629 6.92404C0.369629 5.2457 0.910938 3.82526 1.99356 2.66273C3.07617 1.50021 4.39898 0.918945 5.96196 0.918945C7.52495 0.918945 8.84775 1.50021 9.93037 2.66273C11.013 3.82526 11.5543 5.2457 11.5543 6.92404C11.5543 7.60154 11.4539 8.24055 11.2532 8.84106C11.0524 9.44157 10.78 9.97279 10.4358 10.4347L15.8561 16.255L14.6516 17.5485ZM5.96196 11.0814C7.03741 11.0814 7.95154 10.6772 8.70436 9.86885C9.45717 9.06047 9.83358 8.07887 9.83358 6.92404C9.83358 5.76922 9.45717 4.78761 8.70436 3.97924C7.95154 3.17086 7.03741 2.76667 5.96196 2.76667C4.88651 2.76667 3.97238 3.17086 3.21957 3.97924C2.46675 4.78761 2.09035 5.76922 2.09035 6.92404C2.09035 8.07887 2.46675 9.06047 3.21957 9.86885C3.97238 10.6772 4.88651 11.0814 5.96196 11.0814Z" fill="#1D1B20"/>
</svg>
