<svg width="700" height="700" viewBox="0 0 700 700" fill="none" xmlns="http://www.w3.org/2000/svg">
<path fill-rule="evenodd" clip-rule="evenodd" d="M511.227 67.7466C512.095 68.2436 512.961 68.7444 513.824 69.2491L526.299 47.6412L523.701 46.1412L511.227 67.7466ZM576.964 117.379C578.873 119.242 580.758 121.127 582.621 123.036L600.316 105.341L594.659 99.6843L576.964 117.379ZM630.751 186.176C631.256 187.039 631.756 187.905 632.253 188.773L653.859 176.299L652.359 173.701L630.751 186.176ZM663.613 264.415C663.876 265.379 664.134 266.345 664.388 267.313L688.462 260.862L687.686 257.964L663.613 264.415ZM674.976 346C674.992 347.331 675 348.665 675 350C675 351.335 674.992 352.669 674.976 354H700V346H674.976ZM664.388 432.687C664.134 433.655 663.876 434.621 663.613 435.585L687.686 442.036L688.462 439.138L664.388 432.687ZM632.253 511.227C631.756 512.095 631.256 512.961 630.751 513.824L652.359 526.299L653.859 523.701L632.253 511.227ZM582.621 576.964C580.758 578.873 578.873 580.758 576.964 582.621L594.659 600.316L600.316 594.659L582.621 576.964ZM513.824 630.751C512.961 631.256 512.095 631.756 511.227 632.253L523.701 653.859L526.299 652.359L513.824 630.751ZM435.585 663.613C434.621 663.876 433.655 664.134 432.687 664.388L439.138 688.462L442.035 687.686L435.585 663.613ZM354 674.976C352.669 674.992 351.335 675 350 675C348.665 675 347.331 674.992 346 674.976V700H354V674.976ZM267.313 664.388C266.345 664.134 265.379 663.876 264.415 663.613L257.964 687.686L260.862 688.462L267.313 664.388ZM188.773 632.253C187.905 631.756 187.039 631.256 186.176 630.751L173.701 652.359L176.299 653.859L188.773 632.253ZM123.036 582.621C121.127 580.758 119.242 578.873 117.379 576.964L99.6841 594.659L105.341 600.316L123.036 582.621ZM69.2491 513.824C68.7444 512.961 68.2436 512.095 67.7467 511.227L46.1411 523.701L47.6411 526.299L69.2491 513.824ZM36.3869 435.585C36.1244 434.621 35.8662 433.655 35.6123 432.687L11.5376 439.138L12.3141 442.036L36.3869 435.585ZM25.0241 354C25.0081 352.669 25 351.335 25 350C25 348.665 25.0081 347.331 25.0241 346H0V354H25.0241ZM35.6123 267.313C35.8662 266.345 36.1244 265.379 36.3869 264.415L12.3143 257.965L11.5379 260.862L35.6123 267.313ZM67.7466 188.773L46.1411 176.299L47.6411 173.701L69.2491 186.176C68.7444 187.039 68.2435 187.905 67.7466 188.773ZM117.379 123.036C119.242 121.127 121.127 119.242 123.036 117.379L105.341 99.6841L99.6841 105.341L117.379 123.036ZM186.176 69.2492C187.039 68.7445 187.905 68.2437 188.773 67.7467L176.299 46.1412L173.701 47.6412L186.176 69.2492ZM264.415 36.387C265.379 36.1244 266.345 35.8662 267.313 35.6123L260.862 11.538L257.964 12.3144L264.415 36.387ZM346 25.0241C347.331 25.0081 348.665 25 350 25C351.335 25 352.669 25.0081 354 25.0241V0H346V25.0241ZM432.687 35.6123C433.655 35.8662 434.621 36.1244 435.585 36.3869L442.035 12.3143L439.138 11.5378L432.687 35.6123Z" fill="white"/>
<path d="M350 25C348.665 25 347.331 25.0081 346 25.0241V0H354V25.0241C352.669 25.0081 351.335 25 350 25Z" fill="#F9BB44"/>
</svg>
