<svg width="24" height="24" viewBox="0 0 24 24" fill="none" xmlns="http://www.w3.org/2000/svg">
<path id="Subtract" fill-rule="evenodd" clip-rule="evenodd" d="M4 0C1.79086 0 0 1.79086 0 4V20C0 22.2091 1.79086 24 4 24H20C22.2091 24 24 22.2091 24 20V4C24 1.79086 22.2091 0 20 0H4ZM11.3102 8.59485H14.9702V6.97485H9.64523L9.24023 11.9549L10.4552 12.3299C10.6452 12.1599 10.8402 12.0249 11.0402 11.9249C11.2502 11.8149 11.5152 11.7599 11.8352 11.7599C12.3252 11.7599 12.7302 11.9199 13.0502 12.2399C13.3802 12.5499 13.5452 12.9799 13.5452 13.5299C13.5452 13.7999 13.4952 14.0449 13.3952 14.2649C13.3052 14.4849 13.1802 14.6749 13.0202 14.8349C12.8602 14.9949 12.6702 15.1199 12.4502 15.2099C12.2402 15.2899 12.0102 15.3299 11.7602 15.3299C11.4902 15.3299 11.2502 15.2949 11.0402 15.2249C10.8402 15.1449 10.6602 15.0449 10.5002 14.9249C10.3502 14.8049 10.2152 14.6749 10.0952 14.5349C9.97523 14.3849 9.86523 14.2349 9.76523 14.0849L8.49023 15.2999C8.62023 15.4999 8.78023 15.7049 8.97023 15.9149C9.16023 16.1149 9.38523 16.2999 9.64523 16.4699C9.90523 16.6299 10.2052 16.7599 10.5452 16.8599C10.8952 16.9699 11.2952 17.0249 11.7452 17.0249C12.3052 17.0249 12.8152 16.9349 13.2752 16.7549C13.7352 16.5749 14.1302 16.3299 14.4602 16.0199C14.7902 15.6999 15.0452 15.3299 15.2252 14.9099C15.4152 14.4799 15.5102 14.0199 15.5102 13.5299C15.5102 12.9699 15.4202 12.4749 15.2402 12.0449C15.0602 11.6149 14.8152 11.2549 14.5052 10.9649C14.2052 10.6749 13.8552 10.4549 13.4552 10.3049C13.0652 10.1549 12.6552 10.0799 12.2252 10.0799C12.0252 10.0799 11.8352 10.0999 11.6552 10.1399C11.4852 10.1699 11.3152 10.2099 11.1452 10.2599L11.3102 8.59485Z" fill="#F6F6F6"/>
</svg>
