<svg width="16" height="16" viewBox="0 0 16 16" fill="none" xmlns="http://www.w3.org/2000/svg">
<g clip-path="url(#clip0_618_2497)">
<path fill-rule="evenodd" clip-rule="evenodd" d="M4 0C1.79086 0 0 1.79086 0 4V12C0 14.2091 1.79086 16 4 16H12C14.2091 16 16 14.2091 16 12V4C16 1.79086 14.2091 0 12 0H4ZM7.035 11.31C7.26833 11.3833 7.535 11.42 7.835 11.42C8.18167 11.42 8.505 11.3733 8.805 11.28C9.105 11.1867 9.365 11.0533 9.585 10.88C9.81167 10.7067 9.98833 10.4967 10.115 10.25C10.2483 10.0033 10.315 9.72333 10.315 9.41C10.315 9.02333 10.215 8.68667 10.015 8.4C9.815 8.11333 9.525 7.90333 9.145 7.77C9.41167 7.61667 9.61833 7.42 9.765 7.18C9.91833 6.94 9.995 6.68333 9.995 6.41C9.995 5.84333 9.81167 5.39667 9.445 5.07C9.07833 4.74333 8.55167 4.58 7.865 4.58C7.43833 4.58 7.05833 4.68333 6.725 4.89C6.39833 5.09667 6.135 5.34 5.935 5.62L6.685 6.38C6.79167 6.19333 6.935 6.03667 7.115 5.91C7.295 5.77667 7.545 5.71 7.865 5.71C8.105 5.71 8.30167 5.77667 8.455 5.91C8.60833 6.04333 8.685 6.24 8.685 6.5C8.685 6.72667 8.615 6.92333 8.475 7.09C8.335 7.25667 8.105 7.34 7.785 7.34H7.255V8.4H7.785C8.19167 8.4 8.495 8.48 8.695 8.64C8.90167 8.79333 9.005 9.01667 9.005 9.31C9.005 9.63 8.895 9.87333 8.675 10.04C8.46167 10.2067 8.18167 10.29 7.835 10.29C7.655 10.29 7.49833 10.2667 7.365 10.22C7.23167 10.1667 7.115 10.1 7.015 10.02C6.915 9.94 6.825 9.85333 6.745 9.76C6.67167 9.66 6.60167 9.56 6.535 9.46L5.685 10.27C5.77167 10.4033 5.875 10.54 5.995 10.68C6.12167 10.8133 6.26833 10.9367 6.435 11.05C6.60833 11.1567 6.80833 11.2433 7.035 11.31Z" fill="#F6F6F6"/>
</g>
<defs>
<clipPath id="clip0_618_2497">
<rect width="16" height="16" fill="white"/>
</clipPath>
</defs>
</svg>
