<svg width="25" height="24" viewBox="0 0 25 24" fill="none" xmlns="http://www.w3.org/2000/svg">
<path id="Subtract" fill-rule="evenodd" clip-rule="evenodd" d="M4.5 0C2.29086 0 0.5 1.79086 0.5 4V20C0.5 22.2091 2.29086 24 4.5 24H20.5C22.7091 24 24.5 22.2091 24.5 20V4C24.5 1.79086 22.7091 0 20.5 0H4.5ZM11.0533 16.9651C11.4033 17.0751 11.8033 17.1301 12.2533 17.1301C12.7733 17.1301 13.2583 17.0601 13.7083 16.9201C14.1583 16.7801 14.5483 16.5801 14.8783 16.3201C15.2183 16.0601 15.4833 15.7451 15.6733 15.3751C15.8733 15.0051 15.9733 14.5851 15.9733 14.1151C15.9733 13.5351 15.8233 13.0301 15.5233 12.6001C15.2233 12.1701 14.7883 11.8551 14.2183 11.6551C14.6183 11.4251 14.9283 11.1301 15.1483 10.7701C15.3783 10.4101 15.4933 10.0251 15.4933 9.61512C15.4933 8.76512 15.2183 8.09512 14.6683 7.60512C14.1183 7.11512 13.3283 6.87012 12.2983 6.87012C11.6583 6.87012 11.0883 7.02512 10.5883 7.33512C10.0983 7.64512 9.70332 8.01012 9.40332 8.43012L10.5283 9.57012C10.6883 9.29012 10.9033 9.05512 11.1733 8.86512C11.4433 8.66512 11.8183 8.56512 12.2983 8.56512C12.6583 8.56512 12.9533 8.66512 13.1833 8.86512C13.4133 9.06512 13.5283 9.36012 13.5283 9.75012C13.5283 10.0901 13.4233 10.3851 13.2133 10.6351C13.0033 10.8851 12.6583 11.0101 12.1783 11.0101H11.3833V12.6001H12.1783C12.7883 12.6001 13.2433 12.7201 13.5433 12.9601C13.8533 13.1901 14.0083 13.5251 14.0083 13.9651C14.0083 14.4451 13.8433 14.8101 13.5133 15.0601C13.1933 15.3101 12.7733 15.4351 12.2533 15.4351C11.9833 15.4351 11.7483 15.4001 11.5483 15.3301C11.3483 15.2501 11.1733 15.1501 11.0233 15.0301C10.8733 14.9101 10.7383 14.7801 10.6183 14.6401C10.5083 14.4901 10.4033 14.3401 10.3033 14.1901L9.02832 15.4051C9.15832 15.6051 9.31332 15.8101 9.49332 16.0201C9.68332 16.2201 9.90332 16.4051 10.1533 16.5751C10.4133 16.7351 10.7133 16.8651 11.0533 16.9651Z" fill="#F6F6F6"/>
</svg>
