<svg width="25" height="24" viewBox="0 0 25 24" fill="none" xmlns="http://www.w3.org/2000/svg">
<path id="Subtract" fill-rule="evenodd" clip-rule="evenodd" d="M4.5 0C2.29086 0 0.5 1.79086 0.5 4V20C0.5 22.2091 2.29086 24 4.5 24H20.5C22.7091 24 24.5 22.2091 24.5 20V4C24.5 1.79086 22.7091 0 20.5 0H4.5ZM16.4529 14.5053V12.8853H14.9979V7.08032H12.4929L8.54785 13.1703V14.5053H13.0929V16.9203H14.9979V14.5053H16.4529ZM13.1229 9.46532C13.1029 9.78532 13.0929 10.1353 13.0929 10.5153V12.8853H10.6779L12.3429 10.3053C12.5429 9.98532 12.7129 9.69032 12.8529 9.42032C13.0029 9.14032 13.0979 8.92032 13.1379 8.76032H13.1979C13.1679 8.91032 13.1429 9.14532 13.1229 9.46532Z" fill="#F6F6F6"/>
</svg>
