<svg width="25" height="24" viewBox="0 0 25 24" fill="none" xmlns="http://www.w3.org/2000/svg">
<path id="Subtract" fill-rule="evenodd" clip-rule="evenodd" d="M4.5 0C2.29086 0 0.5 1.79086 0.5 4V20C0.5 22.2091 2.29086 24 4.5 24H20.5C22.7091 24 24.5 22.2091 24.5 20V4C24.5 1.79086 22.7091 0 20.5 0H4.5ZM9.59082 8.53485C9.43082 8.81485 9.30582 9.08985 9.21582 9.35985L10.7908 9.98985C10.9208 9.56985 11.1058 9.24485 11.3458 9.01485C11.5858 8.78485 11.8958 8.66985 12.2758 8.66985C12.5458 8.66985 12.7708 8.70985 12.9508 8.78985C13.1308 8.85985 13.2758 8.96485 13.3858 9.10485C13.4958 9.23485 13.5708 9.38985 13.6108 9.56985C13.6608 9.73985 13.6858 9.92985 13.6858 10.1399C13.6858 10.4799 13.6008 10.7949 13.4308 11.0849C13.2708 11.3749 13.0608 11.6599 12.8008 11.9399C12.5408 12.2099 12.2458 12.4799 11.9158 12.7499C11.5958 13.0199 11.2758 13.3049 10.9558 13.6049C10.6358 13.8949 10.3308 14.2099 10.0408 14.5499C9.75082 14.8799 9.51582 15.2449 9.33582 15.6449V17.0249H15.7858V15.4049H11.6908C11.8508 15.1849 12.0608 14.9649 12.3208 14.7449C12.5808 14.5249 12.8558 14.2999 13.1458 14.0699C13.4358 13.8399 13.7308 13.5949 14.0308 13.3349C14.3308 13.0649 14.6008 12.7699 14.8408 12.4499C15.0808 12.1199 15.2758 11.7599 15.4258 11.3699C15.5758 10.9699 15.6508 10.5249 15.6508 10.0349C15.6508 9.60485 15.5758 9.20485 15.4258 8.83485C15.2858 8.46485 15.0758 8.14485 14.7958 7.87485C14.5258 7.59485 14.1858 7.37485 13.7758 7.21485C13.3658 7.05485 12.8958 6.97485 12.3658 6.97485C11.8958 6.97485 11.4808 7.04985 11.1208 7.19985C10.7708 7.33985 10.4658 7.52985 10.2058 7.76985C9.95582 7.99985 9.75082 8.25485 9.59082 8.53485Z" fill="#F6F6F6"/>
</svg>
