<svg width="569" height="900" viewBox="0 0 569 900" fill="none" xmlns="http://www.w3.org/2000/svg">
<path d="M540.799 478.927C528.414 478.927 514.308 482.711 509.836 484.087L508.804 485.12C481.687 514.819 373.989 541.286 284.771 541.876C195.552 541.286 87.8544 514.819 60.7373 485.12L56.9451 483.055C52.4726 481.679 40.4312 478.927 28.0457 478.927C12.5639 478.927 -0.85366 488.216 1.21058 534.661C3.27483 581.107 5.33907 665.741 36.3027 758.632C67.2664 851.523 143.433 885.524 206.392 893.84C206.392 893.84 235.292 899 268.319 899C301.347 899 331.279 897.656 360.178 893.84C423.138 885.524 501.579 851.523 532.542 758.632C563.506 665.741 565.57 581.107 567.635 534.661C569.699 488.216 556.281 478.927 540.799 478.927Z" fill="url(#paint0_radial_4001_2948)"/>
<path d="M284.771 541.876C373.989 541.286 481.687 514.819 508.804 485.12L509.836 484.087C514.308 482.711 528.414 478.927 540.799 478.927C556.281 478.927 569.699 488.216 567.635 534.661C565.57 581.107 563.506 665.741 532.542 758.632C501.579 851.523 423.138 885.524 360.178 893.84C331.279 897.656 301.347 899 268.319 899C235.292 899 206.392 893.84 206.392 893.84C143.433 885.524 67.2664 851.523 36.3027 758.632C5.33907 665.741 3.27483 581.107 1.21058 534.661C-0.85366 488.216 12.5639 478.927 28.0457 478.927C40.4312 478.927 52.4726 481.679 56.9451 483.055L60.7373 485.12C87.8544 514.819 195.552 541.286 284.771 541.876ZM284.771 541.876C283.757 541.883 282.746 541.886 281.737 541.886M284.771 541.876C285.784 541.883 286.795 541.886 287.804 541.886" stroke="white"/>
<path d="M514.997 32.0184C484.033 1.05443 439.308 0.710422 424.17 1.05446H195.039H145.371C130.233 0.710422 85.5081 1.05443 54.5445 32.0184C20.8981 65.665 9.13112 239.472 23.5808 381.905C28.293 428.353 39.0626 461.381 60.7372 485.12C87.8543 514.819 195.552 541.286 284.771 541.876C373.989 541.286 481.687 514.819 508.804 485.12C530.478 461.381 541.248 428.353 545.96 381.905C560.41 239.472 548.643 65.665 514.997 32.0184Z" fill="url(#paint1_radial_4001_2948)"/>
<path d="M281.737 541.886C371.532 541.886 481.379 515.157 508.804 485.12C530.478 461.381 541.248 428.353 545.96 381.905C560.41 239.472 548.643 65.665 514.997 32.0184C484.033 1.05443 439.308 0.710421 424.17 1.05446H195.039H145.371C130.233 0.710421 85.5081 1.05443 54.5445 32.0184C20.8981 65.665 9.13112 239.472 23.5808 381.905C28.293 428.353 39.0626 461.381 60.7372 485.12C88.1624 515.157 198.009 541.886 287.804 541.886" stroke="white"/>
<path d="M465.454 5.18262C464.422 127.837 457.816 383.095 439.651 422.897C416.944 472.65 372.563 492.344 283.801 492.344" stroke="white"/>
<path d="M102.147 5.18262C103.18 127.837 109.785 383.095 127.95 422.897C150.657 472.65 195.038 492.344 283.801 492.344" stroke="white"/>
<line x1="284.301" y1="1.05469" x2="284.301" y2="492.344" stroke="white"/>
<rect x="166.639" y="719.911" width="234.324" height="133.176" rx="34.5921" fill="url(#paint2_radial_4001_2948)" stroke="white"/>
<defs>
<radialGradient id="paint0_radial_4001_2948" cx="0" cy="0" r="1" gradientUnits="userSpaceOnUse" gradientTransform="translate(284 539.5) rotate(90) scale(248.5 335.325)">
<stop stop-color="white" stop-opacity="0.3"/>
<stop offset="1" stop-color="white" stop-opacity="0"/>
</radialGradient>
<radialGradient id="paint1_radial_4001_2948" cx="0" cy="0" r="1" gradientUnits="userSpaceOnUse" gradientTransform="translate(285 0.999996) rotate(116.268) scale(603.299 596.191)">
<stop stop-color="white" stop-opacity="0.3"/>
<stop offset="0.737764" stop-color="white" stop-opacity="0"/>
</radialGradient>
<radialGradient id="paint2_radial_4001_2948" cx="0" cy="0" r="1" gradientUnits="userSpaceOnUse" gradientTransform="translate(284 719) rotate(131.156) scale(179.301 314.467)">
<stop stop-color="white" stop-opacity="0.3"/>
<stop offset="1" stop-color="white" stop-opacity="0"/>
</radialGradient>
</defs>
</svg>
