<svg width="226" height="258" viewBox="0 0 226 258" fill="none" xmlns="http://www.w3.org/2000/svg">
<rect x="1" y="1" width="223.31" height="256" rx="40.4457" fill="#154559" stroke="#97E0FF" stroke-width="2"/>
<rect x="22.0498" y="19.2168" width="91.0957" height="181.973" rx="18.7422" fill="#154559" stroke="#97E0FF"/>
<rect x="127.093" y="19.2168" width="76.2763" height="181.973" rx="38.1381" fill="#154559" stroke="#97E0FF"/>
<circle cx="165.231" cy="57.3549" r="32.6898" fill="#0D0D0D" stroke="#97E0FF"/>
<rect x="132.541" y="99.3066" width="65.3797" height="21.7932" rx="5.44831" fill="#0D0D0D" stroke="#97E0FF"/>
<circle cx="165.231" cy="163.052" r="32.6898" fill="#0D0D0D" stroke="#97E0FF"/>
<rect x="29.335" y="56.6694" width="76.2825" height="137.944" rx="10.8966" fill="#0D0D0D" stroke="#97E0FF"/>
<path d="M22.0498 225.708C22.0498 222.699 24.4891 220.259 27.4981 220.259H197.921C200.93 220.259 203.369 222.699 203.369 225.708V227.342C203.369 236.369 196.052 243.687 187.024 243.687H38.3947C29.3677 243.687 22.0498 236.369 22.0498 227.342V225.708Z" fill="#0D0D0D" stroke="#97E0FF"/>
<path d="M171.115 220.259L171.115 243.687" stroke="#97E0FF"/>
<path d="M146.598 220.259L146.598 243.687" stroke="#97E0FF"/>
<path d="M122.08 220.259L122.08 243.687" stroke="#97E0FF"/>
<path d="M97.5625 220.259L97.5625 243.687" stroke="#97E0FF"/>
<path d="M73.0459 220.259L73.0459 243.687" stroke="#97E0FF"/>
<path d="M48.5283 220.259L48.5283 243.687" stroke="#97E0FF"/>
<rect x="42.0479" y="37.5986" width="50.855" height="3.81412" rx="1.90706" fill="#247699"/>
</svg>
