<svg xmlns="http://www.w3.org/2000/svg" width="50" height="50" viewBox="0 0 50 50">
  <path d="M23.7379 1.31283C24.473 0.714808 25.527 0.714808 26.2621 1.31283L29.805 4.19491C30.2471 4.55456 30.8217 4.70851 31.3844 4.6181L35.8936 3.89359C36.8293 3.74326 37.742 4.27022 38.0797 5.1557L39.7069 9.42309C39.9099 9.95562 40.3305 10.3762 40.863 10.5793L45.1304 12.2065C46.0159 12.5441 46.5429 13.4568 46.3925 14.3925L45.668 18.9018C45.5776 19.4645 45.7316 20.039 46.0912 20.4811L48.9733 24.024C49.5713 24.7592 49.5713 25.8131 48.9733 26.5482L46.0912 30.0911C45.7316 30.5332 45.5776 31.1078 45.668 31.6705L46.3925 36.1798C46.5429 37.1154 46.0159 38.0282 45.1304 38.3658L40.863 39.993C40.3305 40.196 39.9099 40.6166 39.7069 41.1492L38.0797 45.4166C37.742 46.302 36.8293 46.829 35.8936 46.6787L31.3844 45.9542C30.8217 45.8638 30.2471 46.0177 29.805 46.3774L26.2621 49.2594C25.527 49.8575 24.473 49.8575 23.7379 49.2594L20.195 46.3774C19.7529 46.0177 19.1783 45.8638 18.6156 45.9542L14.1064 46.6787C13.1707 46.829 12.258 46.302 11.9203 45.4166L10.2931 41.1492C10.0901 40.6166 9.66949 40.196 9.13696 39.993L4.86957 38.3658C3.98409 38.0282 3.45713 37.1154 3.60746 36.1798L4.33197 31.6705C4.42238 31.1078 4.26843 30.5332 3.90878 30.0911L1.0267 26.5482C0.428675 25.8131 0.428675 24.7592 1.0267 24.024L3.90878 20.4811C4.26843 20.039 4.42238 19.4645 4.33197 18.9018L3.60746 14.3925C3.45713 13.4568 3.98409 12.5441 4.86956 12.2065L9.13696 10.5793C9.66949 10.3762 10.0901 9.95562 10.2931 9.42309L11.9203 5.1557C12.258 4.27022 13.1707 3.74326 14.1064 3.89359L18.6156 4.6181C19.1783 4.70851 19.7529 4.55456 20.195 4.19491L23.7379 1.31283Z"/>
</svg>