<svg width="48" height="48" viewBox="0 0 48 48" fill="none" xmlns="http://www.w3.org/2000/svg">
<path d="M24.0199 23.9996L24.0199 1.59961C27.4866 2.66628 34.4199 6.66143 34.4199 14.1087C34.4199 21.556 27.4866 23.8057 24.0199 23.9996Z" fill="white" stroke="#111111" stroke-width="1.6"/>
<path d="M24.0182 23.9996H1.61816C2.68483 20.5329 6.67998 13.5996 14.1273 13.5996C21.5745 13.5996 23.8242 20.5329 24.0182 23.9996Z" fill="white" stroke="#111111" stroke-width="1.6"/>
<path d="M24.0182 23.999L46.8972 23.999C45.8077 27.4108 41.7272 34.2344 34.1206 34.2344C26.5141 34.2344 24.2163 27.4108 24.0182 23.999Z" fill="white" stroke="#111111" stroke-width="1.6"/>
<path d="M23.8535 23.9999L23.8535 46.8789C20.4417 45.7894 13.6182 41.7089 13.6182 34.1023C13.6182 26.4958 20.4417 24.198 23.8535 23.9999Z" fill="white" stroke="#111111" stroke-width="1.6"/>
</svg>
