<svg width="16" height="16" viewBox="0 0 16 16" fill="none" xmlns="http://www.w3.org/2000/svg">
<g clip-path="url(#clip0_618_2496)">
<path fill-rule="evenodd" clip-rule="evenodd" d="M4 0C1.79086 0 0 1.79086 0 4V12C0 14.2091 1.79086 16 4 16H12C14.2091 16 16 14.2091 16 12V4C16 1.79086 14.2091 0 12 0H4ZM10.635 9.67V8.59H9.665V4.72H7.995L5.365 8.78V9.67H8.395V11.28H9.665V9.67H10.635ZM8.415 6.31C8.40167 6.52333 8.395 6.75667 8.395 7.01V8.59H6.785L7.895 6.87C8.02833 6.65667 8.14167 6.46 8.235 6.28C8.335 6.09333 8.39833 5.94667 8.425 5.84H8.465C8.445 5.94 8.42833 6.09667 8.415 6.31Z" fill="#F6F6F6"/>
</g>
<defs>
<clipPath id="clip0_618_2496">
<rect width="16" height="16" fill="white"/>
</clipPath>
</defs>
</svg>
