<svg width="16" height="16" viewBox="0 0 16 16" fill="none" xmlns="http://www.w3.org/2000/svg">
<g clip-path="url(#clip0_618_2495)">
<path fill-rule="evenodd" clip-rule="evenodd" d="M4 0C1.79086 0 0 1.79086 0 4V12C0 14.2091 1.79086 16 4 16H12C14.2091 16 16 14.2091 16 12V4C16 1.79086 14.2091 0 12 0H4ZM7.54 5.73H9.98V4.65H6.43L6.16 7.97L6.97 8.22C7.09667 8.10667 7.22667 8.01667 7.36 7.95C7.5 7.87667 7.67667 7.84 7.89 7.84C8.21667 7.84 8.48667 7.94667 8.7 8.16C8.92 8.36667 9.03 8.65333 9.03 9.02C9.03 9.2 8.99667 9.36333 8.93 9.51C8.87 9.65667 8.78667 9.78333 8.68 9.89C8.57333 9.99667 8.44667 10.08 8.3 10.14C8.16 10.1933 8.00667 10.22 7.84 10.22C7.66 10.22 7.5 10.1967 7.36 10.15C7.22667 10.0967 7.10667 10.03 7 9.95C6.9 9.87 6.81 9.78333 6.73 9.69C6.65 9.59 6.57667 9.49 6.51 9.39L5.66 10.2C5.74667 10.3333 5.85333 10.47 5.98 10.61C6.10667 10.7433 6.25667 10.8667 6.43 10.98C6.60333 11.0867 6.80333 11.1733 7.03 11.24C7.26333 11.3133 7.53 11.35 7.83 11.35C8.20333 11.35 8.54333 11.29 8.85 11.17C9.15667 11.05 9.42 10.8867 9.64 10.68C9.86 10.4667 10.03 10.22 10.15 9.94C10.2767 9.65333 10.34 9.34667 10.34 9.02C10.34 8.64667 10.28 8.31667 10.16 8.03C10.04 7.74333 9.87667 7.50333 9.67 7.31C9.47 7.11667 9.23667 6.97 8.97 6.87C8.71 6.77 8.43667 6.72 8.15 6.72C8.01667 6.72 7.89 6.73333 7.77 6.76C7.65667 6.78 7.54333 6.80667 7.43 6.84L7.54 5.73Z" fill="#F6F6F6"/>
</g>
<defs>
<clipPath id="clip0_618_2495">
<rect width="16" height="16" fill="white"/>
</clipPath>
</defs>
</svg>
