<svg width="16" height="16" viewBox="0 0 16 16" fill="none" xmlns="http://www.w3.org/2000/svg">
<g clip-path="url(#clip0_618_2498)">
<path fill-rule="evenodd" clip-rule="evenodd" d="M4 0C1.79086 0 0 1.79086 0 4V12C0 14.2091 1.79086 16 4 16H12C14.2091 16 16 14.2091 16 12V4C16 1.79086 14.2091 0 12 0H4ZM6.06 5.69C5.95333 5.87667 5.87 6.06 5.81 6.24L6.86 6.66C6.94667 6.38 7.07 6.16333 7.23 6.01C7.39 5.85667 7.59667 5.78 7.85 5.78C8.03 5.78 8.18 5.80667 8.3 5.86C8.42 5.90667 8.51667 5.97667 8.59 6.07C8.66333 6.15667 8.71333 6.26 8.74 6.38C8.77333 6.49333 8.79 6.62 8.79 6.76C8.79 6.98667 8.73333 7.19667 8.62 7.39C8.51333 7.58333 8.37333 7.77333 8.2 7.96C8.02667 8.14 7.83 8.32 7.61 8.5C7.39667 8.68 7.18333 8.87 6.97 9.07C6.75667 9.26333 6.55333 9.47333 6.36 9.7C6.16667 9.92 6.01 10.1633 5.89 10.43V11.35H10.19V10.27H7.46C7.56667 10.1233 7.70667 9.97667 7.88 9.83C8.05333 9.68333 8.23667 9.53333 8.43 9.38C8.62333 9.22667 8.82 9.06333 9.02 8.89C9.22 8.71 9.4 8.51333 9.56 8.3C9.72 8.08 9.85 7.84 9.95 7.58C10.05 7.31333 10.1 7.01667 10.1 6.69C10.1 6.40333 10.05 6.13667 9.95 5.89C9.85667 5.64333 9.71667 5.43 9.53 5.25C9.35 5.06333 9.12333 4.91667 8.85 4.81C8.57667 4.70333 8.26333 4.65 7.91 4.65C7.59667 4.65 7.32 4.7 7.08 4.8C6.84667 4.89333 6.64333 5.02 6.47 5.18C6.30333 5.33333 6.16667 5.50333 6.06 5.69Z" fill="#F6F6F6"/>
</g>
<defs>
<clipPath id="clip0_618_2498">
<rect width="16" height="16" fill="white"/>
</clipPath>
</defs>
</svg>
