<svg xmlns="http://www.w3.org/2000/svg" width="38" height="79" viewBox="0 0 38 79" fill="none">
  <path d="M21.5 3C21.5 1.61929 20.3807 0.5 19 0.5C17.6193 0.5 16.5 1.61929 16.5 3L21.5 3ZM17.2322 77.7678C18.2085 78.7441 19.7915 78.7441 20.7678 77.7678L36.6777 61.8579C37.654 60.8815 37.654 59.2986 36.6777 58.3223C35.7014 57.346 34.1184 57.346 33.1421 58.3223L19 72.4645L4.85787 58.3223C3.88156 57.346 2.29864 57.346 1.32233 58.3223C0.346022 59.2986 0.346022 60.8816 1.32233 61.8579L17.2322 77.7678ZM16.5 3L16.5 76L21.5 76L21.5 3L16.5 3Z" fill="black"/>
</svg>